<?xml version="1.0" encoding="UTF-8" standalone="no"?>
<!-- Created with Inkscape (http://www.inkscape.org/) -->

<svg
   xmlns:dc="http://purl.org/dc/elements/1.1/"
   xmlns:cc="http://creativecommons.org/ns#"
   xmlns:rdf="http://www.w3.org/1999/02/22-rdf-syntax-ns#"
   xmlns:svg="http://www.w3.org/2000/svg"
   xmlns="http://www.w3.org/2000/svg"
   xmlns:sodipodi="http://sodipodi.sourceforge.net/DTD/sodipodi-0.dtd"
   xmlns:inkscape="http://www.inkscape.org/namespaces/inkscape"
   width="52.526253mm"
   height="108.39235mm"
   viewBox="0 0 186.11664 384.06738"
   id="svg5270"
   version="1.1"
   inkscape:version="0.91 r13725"
   sodipodi:docname="block.svg">
  <defs
     id="defs5272">
    <marker
       inkscape:isstock="true"
       style="overflow:visible"
       id="marker4731"
       refX="0"
       refY="0"
       orient="auto"
       inkscape:stockid="Arrow1Mend">
      <path
         transform="matrix(-0.4,0,0,-0.4,-4,0)"
         style="fill:#000000;fill-opacity:1;fill-rule:evenodd;stroke:#000000;stroke-width:1pt;stroke-opacity:1"
         d="M 0,0 5,-5 -12.5,0 5,5 0,0 Z"
         id="path4733"
         inkscape:connector-curvature="0" />
    </marker>
    <marker
       inkscape:isstock="true"
       style="overflow:visible"
       id="marker4727"
       refX="0"
       refY="0"
       orient="auto"
       inkscape:stockid="Arrow1Mend">
      <path
         transform="matrix(-0.4,0,0,-0.4,-4,0)"
         style="fill:#000000;fill-opacity:1;fill-rule:evenodd;stroke:#000000;stroke-width:1pt;stroke-opacity:1"
         d="M 0,0 5,-5 -12.5,0 5,5 0,0 Z"
         id="path4729"
         inkscape:connector-curvature="0" />
    </marker>
    <marker
       inkscape:isstock="true"
       style="overflow:visible"
       id="marker4723"
       refX="0"
       refY="0"
       orient="auto"
       inkscape:stockid="Arrow1Mend">
      <path
         transform="matrix(-0.4,0,0,-0.4,-4,0)"
         style="fill:#000000;fill-opacity:1;fill-rule:evenodd;stroke:#000000;stroke-width:1pt;stroke-opacity:1"
         d="M 0,0 5,-5 -12.5,0 5,5 0,0 Z"
         id="path4725"
         inkscape:connector-curvature="0" />
    </marker>
    <marker
       inkscape:stockid="Arrow1Mend"
       orient="auto"
       refY="0"
       refX="0"
       id="marker4719"
       style="overflow:visible"
       inkscape:isstock="true"
       inkscape:collect="always">
      <path
         id="path4721"
         d="M 0,0 5,-5 -12.5,0 5,5 0,0 Z"
         style="fill:#000000;fill-opacity:1;fill-rule:evenodd;stroke:#000000;stroke-width:1pt;stroke-opacity:1"
         transform="matrix(-0.4,0,0,-0.4,-4,0)"
         inkscape:connector-curvature="0" />
    </marker>
    <marker
       inkscape:isstock="true"
       style="overflow:visible"
       id="marker4715"
       refX="0"
       refY="0"
       orient="auto"
       inkscape:stockid="Arrow1Lend">
      <path
         transform="matrix(-0.8,0,0,-0.8,-10,0)"
         style="fill:#000000;fill-opacity:1;fill-rule:evenodd;stroke:#000000;stroke-width:1pt;stroke-opacity:1"
         d="M 0,0 5,-5 -12.5,0 5,5 0,0 Z"
         id="path4717"
         inkscape:connector-curvature="0" />
    </marker>
    <marker
       inkscape:isstock="true"
       style="overflow:visible"
       id="marker4711"
       refX="0"
       refY="0"
       orient="auto"
       inkscape:stockid="Arrow1Lend">
      <path
         transform="matrix(-0.8,0,0,-0.8,-10,0)"
         style="fill:#000000;fill-opacity:1;fill-rule:evenodd;stroke:#000000;stroke-width:1pt;stroke-opacity:1"
         d="M 0,0 5,-5 -12.5,0 5,5 0,0 Z"
         id="path4713"
         inkscape:connector-curvature="0" />
    </marker>
    <marker
       inkscape:isstock="true"
       style="overflow:visible"
       id="marker4707"
       refX="0"
       refY="0"
       orient="auto"
       inkscape:stockid="Arrow1Lend">
      <path
         transform="matrix(-0.8,0,0,-0.8,-10,0)"
         style="fill:#000000;fill-opacity:1;fill-rule:evenodd;stroke:#000000;stroke-width:1pt;stroke-opacity:1"
         d="M 0,0 5,-5 -12.5,0 5,5 0,0 Z"
         id="path4709"
         inkscape:connector-curvature="0" />
    </marker>
    <marker
       inkscape:isstock="true"
       style="overflow:visible"
       id="marker4693"
       refX="0"
       refY="0"
       orient="auto"
       inkscape:stockid="Arrow1Mend">
      <path
         transform="matrix(-0.4,0,0,-0.4,-4,0)"
         style="fill:#000000;fill-opacity:1;fill-rule:evenodd;stroke:#000000;stroke-width:1pt;stroke-opacity:1"
         d="M 0,0 5,-5 -12.5,0 5,5 0,0 Z"
         id="path4695"
         inkscape:connector-curvature="0" />
    </marker>
    <marker
       inkscape:isstock="true"
       style="overflow:visible"
       id="marker4689"
       refX="0"
       refY="0"
       orient="auto"
       inkscape:stockid="Arrow1Mend">
      <path
         transform="matrix(-0.4,0,0,-0.4,-4,0)"
         style="fill:#000000;fill-opacity:1;fill-rule:evenodd;stroke:#000000;stroke-width:1pt;stroke-opacity:1"
         d="M 0,0 5,-5 -12.5,0 5,5 0,0 Z"
         id="path4691"
         inkscape:connector-curvature="0" />
    </marker>
    <marker
       inkscape:isstock="true"
       style="overflow:visible"
       id="marker4685"
       refX="0"
       refY="0"
       orient="auto"
       inkscape:stockid="Arrow1Mend">
      <path
         transform="matrix(-0.4,0,0,-0.4,-4,0)"
         style="fill:#000000;fill-opacity:1;fill-rule:evenodd;stroke:#000000;stroke-width:1pt;stroke-opacity:1"
         d="M 0,0 5,-5 -12.5,0 5,5 0,0 Z"
         id="path4687"
         inkscape:connector-curvature="0" />
    </marker>
    <marker
       inkscape:isstock="true"
       style="overflow:visible"
       id="marker4681"
       refX="0"
       refY="0"
       orient="auto"
       inkscape:stockid="Arrow1Mend">
      <path
         transform="matrix(-0.4,0,0,-0.4,-4,0)"
         style="fill:#000000;fill-opacity:1;fill-rule:evenodd;stroke:#000000;stroke-width:1pt;stroke-opacity:1"
         d="M 0,0 5,-5 -12.5,0 5,5 0,0 Z"
         id="path4683"
         inkscape:connector-curvature="0" />
    </marker>
    <marker
       inkscape:isstock="true"
       style="overflow:visible"
       id="marker4677"
       refX="0"
       refY="0"
       orient="auto"
       inkscape:stockid="Arrow1Mend">
      <path
         transform="matrix(-0.4,0,0,-0.4,-4,0)"
         style="fill:#000000;fill-opacity:1;fill-rule:evenodd;stroke:#000000;stroke-width:1pt;stroke-opacity:1"
         d="M 0,0 5,-5 -12.5,0 5,5 0,0 Z"
         id="path4679"
         inkscape:connector-curvature="0" />
    </marker>
    <marker
       inkscape:isstock="true"
       style="overflow:visible"
       id="marker4673"
       refX="0"
       refY="0"
       orient="auto"
       inkscape:stockid="Arrow1Mend">
      <path
         transform="matrix(-0.4,0,0,-0.4,-4,0)"
         style="fill:#000000;fill-opacity:1;fill-rule:evenodd;stroke:#000000;stroke-width:1pt;stroke-opacity:1"
         d="M 0,0 5,-5 -12.5,0 5,5 0,0 Z"
         id="path4675"
         inkscape:connector-curvature="0" />
    </marker>
    <marker
       inkscape:isstock="true"
       style="overflow:visible"
       id="marker4669"
       refX="0"
       refY="0"
       orient="auto"
       inkscape:stockid="Arrow1Mend">
      <path
         transform="matrix(-0.4,0,0,-0.4,-4,0)"
         style="fill:#000000;fill-opacity:1;fill-rule:evenodd;stroke:#000000;stroke-width:1pt;stroke-opacity:1"
         d="M 0,0 5,-5 -12.5,0 5,5 0,0 Z"
         id="path4671"
         inkscape:connector-curvature="0" />
    </marker>
    <marker
       inkscape:isstock="true"
       style="overflow:visible"
       id="marker4665"
       refX="0"
       refY="0"
       orient="auto"
       inkscape:stockid="Arrow1Mend">
      <path
         transform="matrix(-0.4,0,0,-0.4,-4,0)"
         style="fill:#000000;fill-opacity:1;fill-rule:evenodd;stroke:#000000;stroke-width:1pt;stroke-opacity:1"
         d="M 0,0 5,-5 -12.5,0 5,5 0,0 Z"
         id="path4667"
         inkscape:connector-curvature="0" />
    </marker>
    <marker
       inkscape:isstock="true"
       style="overflow:visible"
       id="marker4661"
       refX="0"
       refY="0"
       orient="auto"
       inkscape:stockid="Arrow1Mend">
      <path
         transform="matrix(-0.4,0,0,-0.4,-4,0)"
         style="fill:#000000;fill-opacity:1;fill-rule:evenodd;stroke:#000000;stroke-width:1pt;stroke-opacity:1"
         d="M 0,0 5,-5 -12.5,0 5,5 0,0 Z"
         id="path4663"
         inkscape:connector-curvature="0" />
    </marker>
    <marker
       inkscape:isstock="true"
       style="overflow:visible"
       id="marker4657"
       refX="0"
       refY="0"
       orient="auto"
       inkscape:stockid="Arrow1Mend">
      <path
         transform="matrix(-0.4,0,0,-0.4,-4,0)"
         style="fill:#000000;fill-opacity:1;fill-rule:evenodd;stroke:#000000;stroke-width:1pt;stroke-opacity:1"
         d="M 0,0 5,-5 -12.5,0 5,5 0,0 Z"
         id="path4659"
         inkscape:connector-curvature="0" />
    </marker>
    <marker
       inkscape:isstock="true"
       style="overflow:visible"
       id="marker4653"
       refX="0"
       refY="0"
       orient="auto"
       inkscape:stockid="Arrow1Mend">
      <path
         transform="matrix(-0.4,0,0,-0.4,-4,0)"
         style="fill:#000000;fill-opacity:1;fill-rule:evenodd;stroke:#000000;stroke-width:1pt;stroke-opacity:1"
         d="M 0,0 5,-5 -12.5,0 5,5 0,0 Z"
         id="path4655"
         inkscape:connector-curvature="0" />
    </marker>
    <marker
       inkscape:isstock="true"
       style="overflow:visible"
       id="marker4649"
       refX="0"
       refY="0"
       orient="auto"
       inkscape:stockid="Arrow1Mend">
      <path
         transform="matrix(-0.4,0,0,-0.4,-4,0)"
         style="fill:#000000;fill-opacity:1;fill-rule:evenodd;stroke:#000000;stroke-width:1pt;stroke-opacity:1"
         d="M 0,0 5,-5 -12.5,0 5,5 0,0 Z"
         id="path4651"
         inkscape:connector-curvature="0" />
    </marker>
    <marker
       inkscape:isstock="true"
       style="overflow:visible"
       id="marker4645"
       refX="0"
       refY="0"
       orient="auto"
       inkscape:stockid="Arrow1Mend">
      <path
         transform="matrix(-0.4,0,0,-0.4,-4,0)"
         style="fill:#000000;fill-opacity:1;fill-rule:evenodd;stroke:#000000;stroke-width:1pt;stroke-opacity:1"
         d="M 0,0 5,-5 -12.5,0 5,5 0,0 Z"
         id="path4647"
         inkscape:connector-curvature="0" />
    </marker>
    <marker
       inkscape:isstock="true"
       style="overflow:visible"
       id="marker4641"
       refX="0"
       refY="0"
       orient="auto"
       inkscape:stockid="Arrow1Mend">
      <path
         transform="matrix(-0.4,0,0,-0.4,-4,0)"
         style="fill:#000000;fill-opacity:1;fill-rule:evenodd;stroke:#000000;stroke-width:1pt;stroke-opacity:1"
         d="M 0,0 5,-5 -12.5,0 5,5 0,0 Z"
         id="path4643"
         inkscape:connector-curvature="0" />
    </marker>
    <marker
       inkscape:isstock="true"
       style="overflow:visible"
       id="marker4637"
       refX="0"
       refY="0"
       orient="auto"
       inkscape:stockid="Arrow1Mend">
      <path
         transform="matrix(-0.4,0,0,-0.4,-4,0)"
         style="fill:#000000;fill-opacity:1;fill-rule:evenodd;stroke:#000000;stroke-width:1pt;stroke-opacity:1"
         d="M 0,0 5,-5 -12.5,0 5,5 0,0 Z"
         id="path4639"
         inkscape:connector-curvature="0" />
    </marker>
    <marker
       inkscape:isstock="true"
       style="overflow:visible"
       id="marker4633"
       refX="0"
       refY="0"
       orient="auto"
       inkscape:stockid="Arrow1Mend">
      <path
         transform="matrix(-0.4,0,0,-0.4,-4,0)"
         style="fill:#000000;fill-opacity:1;fill-rule:evenodd;stroke:#000000;stroke-width:1pt;stroke-opacity:1"
         d="M 0,0 5,-5 -12.5,0 5,5 0,0 Z"
         id="path4635"
         inkscape:connector-curvature="0" />
    </marker>
    <marker
       inkscape:stockid="Arrow1Mend"
       orient="auto"
       refY="0"
       refX="0"
       id="Arrow1Mend"
       style="overflow:visible"
       inkscape:isstock="true"
       inkscape:collect="always">
      <path
         id="path4384"
         d="M 0,0 5,-5 -12.5,0 5,5 0,0 Z"
         style="fill:#000000;fill-opacity:1;fill-rule:evenodd;stroke:#000000;stroke-width:1pt;stroke-opacity:1"
         transform="matrix(-0.4,0,0,-0.4,-4,0)"
         inkscape:connector-curvature="0" />
    </marker>
    <marker
       inkscape:isstock="true"
       style="overflow:visible"
       id="marker7086"
       refX="0"
       refY="0"
       orient="auto"
       inkscape:stockid="Arrow2Mend">
      <path
         transform="scale(-0.6,-0.6)"
         d="M 8.7185878,4.0337352 -2.2072895,0.01601326 8.7185884,-4.0017078 c -1.7454984,2.3720609 -1.7354408,5.6174519 -6e-7,8.035443 z"
         style="fill:#000000;fill-opacity:1;fill-rule:evenodd;stroke:#000000;stroke-width:0.625;stroke-linejoin:round;stroke-opacity:1"
         id="path7088"
         inkscape:connector-curvature="0" />
    </marker>
    <marker
       inkscape:isstock="true"
       style="overflow:visible"
       id="marker7034"
       refX="0"
       refY="0"
       orient="auto"
       inkscape:stockid="Arrow2Mend">
      <path
         transform="scale(-0.6,-0.6)"
         d="M 8.7185878,4.0337352 -2.2072895,0.01601326 8.7185884,-4.0017078 c -1.7454984,2.3720609 -1.7354408,5.6174519 -6e-7,8.035443 z"
         style="fill:#000000;fill-opacity:1;fill-rule:evenodd;stroke:#000000;stroke-width:0.625;stroke-linejoin:round;stroke-opacity:1"
         id="path7036"
         inkscape:connector-curvature="0" />
    </marker>
    <marker
       inkscape:isstock="true"
       style="overflow:visible"
       id="marker6988"
       refX="0"
       refY="0"
       orient="auto"
       inkscape:stockid="Arrow2Mend">
      <path
         transform="scale(-0.6,-0.6)"
         d="M 8.7185878,4.0337352 -2.2072895,0.01601326 8.7185884,-4.0017078 c -1.7454984,2.3720609 -1.7354408,5.6174519 -6e-7,8.035443 z"
         style="fill:#000000;fill-opacity:1;fill-rule:evenodd;stroke:#000000;stroke-width:0.625;stroke-linejoin:round;stroke-opacity:1"
         id="path6990"
         inkscape:connector-curvature="0" />
    </marker>
    <marker
       inkscape:isstock="true"
       style="overflow:visible"
       id="marker6948"
       refX="0"
       refY="0"
       orient="auto"
       inkscape:stockid="Arrow2Mend">
      <path
         transform="scale(-0.6,-0.6)"
         d="M 8.7185878,4.0337352 -2.2072895,0.01601326 8.7185884,-4.0017078 c -1.7454984,2.3720609 -1.7354408,5.6174519 -6e-7,8.035443 z"
         style="fill:#000000;fill-opacity:1;fill-rule:evenodd;stroke:#000000;stroke-width:0.625;stroke-linejoin:round;stroke-opacity:1"
         id="path6950"
         inkscape:connector-curvature="0" />
    </marker>
    <marker
       inkscape:isstock="true"
       style="overflow:visible"
       id="marker6914"
       refX="0"
       refY="0"
       orient="auto"
       inkscape:stockid="Arrow2Mend">
      <path
         transform="scale(-0.6,-0.6)"
         d="M 8.7185878,4.0337352 -2.2072895,0.01601326 8.7185884,-4.0017078 c -1.7454984,2.3720609 -1.7354408,5.6174519 -6e-7,8.035443 z"
         style="fill:#000000;fill-opacity:1;fill-rule:evenodd;stroke:#000000;stroke-width:0.625;stroke-linejoin:round;stroke-opacity:1"
         id="path6916"
         inkscape:connector-curvature="0" />
    </marker>
    <marker
       inkscape:isstock="true"
       style="overflow:visible"
       id="marker6886"
       refX="0"
       refY="0"
       orient="auto"
       inkscape:stockid="Arrow2Mend">
      <path
         transform="scale(-0.6,-0.6)"
         d="M 8.7185878,4.0337352 -2.2072895,0.01601326 8.7185884,-4.0017078 c -1.7454984,2.3720609 -1.7354408,5.6174519 -6e-7,8.035443 z"
         style="fill:#000000;fill-opacity:1;fill-rule:evenodd;stroke:#000000;stroke-width:0.625;stroke-linejoin:round;stroke-opacity:1"
         id="path6888"
         inkscape:connector-curvature="0" />
    </marker>
    <marker
       inkscape:stockid="DotM"
       orient="auto"
       refY="0"
       refX="0"
       id="DotM"
       style="overflow:visible"
       inkscape:isstock="true">
      <path
         id="path5902"
         d="m -2.5,-1 c 0,2.76 -2.24,5 -5,5 -2.76,0 -5,-2.24 -5,-5 0,-2.76 2.24,-5 5,-5 2.76,0 5,2.24 5,5 z"
         style="fill:#000000;fill-opacity:1;fill-rule:evenodd;stroke:#000000;stroke-width:1pt;stroke-opacity:1"
         transform="matrix(0.4,0,0,0.4,2.96,0.4)"
         inkscape:connector-curvature="0" />
    </marker>
  </defs>
  <sodipodi:namedview
     id="base"
     pagecolor="#ffffff"
     bordercolor="#666666"
     borderopacity="1.0"
     inkscape:pageopacity="0.0"
     inkscape:pageshadow="2"
     inkscape:zoom="1.4"
     inkscape:cx="31.484526"
     inkscape:cy="177.79263"
     inkscape:document-units="px"
     inkscape:current-layer="layer1"
     showgrid="true"
     inkscape:window-width="1920"
     inkscape:window-height="1027"
     inkscape:window-x="1912"
     inkscape:window-y="-8"
     inkscape:window-maximized="1"
     fit-margin-top="0"
     fit-margin-left="0"
     fit-margin-right="0"
     fit-margin-bottom="0">
    <inkscape:grid
       type="xygrid"
       id="grid5818"
       originx="-287.18901"
       originy="-287.48539" />
  </sodipodi:namedview>
  <metadata
     id="metadata5275">
    <rdf:RDF>
      <cc:Work
         rdf:about="">
        <dc:format>image/svg+xml</dc:format>
        <dc:type
           rdf:resource="http://purl.org/dc/dcmitype/StillImage" />
        <dc:title></dc:title>
      </cc:Work>
    </rdf:RDF>
  </metadata>
  <g
     inkscape:label="Laag 1"
     inkscape:groupmode="layer"
     id="layer1"
     transform="translate(-287.189,-380.80945)">
    <g
       transform="translate(115.00001,59.478575)"
       style="font-style:normal;font-weight:normal;font-size:10px;line-height:125%;font-family:sans-serif;letter-spacing:0px;word-spacing:0px;fill:#000000;fill-opacity:1;stroke:none;stroke-width:1px;stroke-linecap:butt;stroke-linejoin:miter;stroke-opacity:1"
       id="text4140">
      <path
         id="path6659"
         style="font-size:20px"
         d="m 141.2982,397.33215 q 0,1.98243 -0.86914,3.59375 -0.85937,1.61133 -2.29492,2.5 -0.99609,0.61524 -2.22656,0.88868 -1.22071,0.27343 -3.22266,0.27343 l -3.67187,0 0,-14.54101 3.63281,0 q 2.12891,0 3.37891,0.3125 1.25976,0.30273 2.1289,0.83984 1.48438,0.92774 2.31445,2.4707 0.83008,1.54297 0.83008,3.66211 z m -2.02148,-0.0293 q 0,-1.70899 -0.5957,-2.88086 -0.59571,-1.17188 -1.77735,-1.84571 -0.85937,-0.48828 -1.82617,-0.67382 -0.9668,-0.19532 -2.31445,-0.19532 l -1.81641,0 0,11.22071 1.81641,0 q 1.39648,0 2.43164,-0.20508 1.04492,-0.20508 1.91406,-0.76172 1.08398,-0.69336 1.62109,-1.82617 0.54688,-1.13281 0.54688,-2.83203 z M 119.5,381.86133 l 0,0.5 0,30.5 31,0 0,-31 -31,0 z m 1,1 29,0 0,29 -29,0 0,-29 z"
         inkscape:connector-curvature="0" />
    </g>
    <path
       id="path4148-4"
       style="fill:none;fill-rule:evenodd;stroke:#000000;stroke-width:1px;stroke-linecap:butt;stroke-linejoin:miter;stroke-opacity:1"
       d="m 242.92384,540.77482 14.15234,14.1319 z m 14.14212,-0.0102 -14.1319,14.15234 z m 7.93405,7.07616 a 15,15 0 0 1 -15,15 15,15 0 0 1 -15,-15 15,15 0 0 1 15,-15 15,15 0 0 1 15,15 z"
       inkscape:connector-curvature="0" />
    <path
       id="path4148-5"
       style="fill:none;fill-rule:evenodd;stroke:#000000;stroke-width:1px;stroke-linecap:butt;stroke-linejoin:miter;stroke-opacity:1"
       d="m 241.5625,502.1488 20,0 z m 10,-10 0,20 z m 15,10.00001 a 15,15 0 0 1 -15,15 15,15 0 0 1 -15,-15 15,15 0 0 1 15,-15 15,15 0 0 1 15,15 z"
       inkscape:connector-curvature="0" />
    <text
       xml:space="preserve"
       style="font-style:normal;font-weight:normal;font-size:12.5px;line-height:125%;font-family:sans-serif;letter-spacing:0px;word-spacing:0px;fill:#000000;fill-opacity:1;stroke:none;stroke-width:1px;stroke-linecap:butt;stroke-linejoin:miter;stroke-opacity:1"
       x="360"
       y="587.36218"
       id="text4224"
       sodipodi:linespacing="125%"><tspan
         sodipodi:role="line"
         id="tspan4226"
         x="360"
         y="587.36218" /></text>
    <path
       id="path4148-4-0"
       style="fill:none;fill-rule:evenodd;stroke:#000000;stroke-width:1px;stroke-linecap:butt;stroke-linejoin:miter;stroke-opacity:1"
       d="m 432.41876,434.96644 14.15234,14.1319 z m 14.14212,-0.0102 -14.1319,14.15234 z m 7.93405,7.07616 a 15,15 0 0 1 -15,15 15,15 0 0 1 -15,-15 15,15 0 0 1 15,-15 15,15 0 0 1 15,15 z"
       inkscape:connector-curvature="0" />
    <g
       transform="translate(304.94925,89.427814)"
       style="font-style:normal;font-weight:normal;font-size:10px;line-height:125%;font-family:sans-serif;letter-spacing:0px;word-spacing:0px;fill:#000000;fill-opacity:1;stroke:none;stroke-width:1px;stroke-linecap:butt;stroke-linejoin:miter;stroke-opacity:1"
       id="text4140-0">
      <path
         id="path6659-1"
         style="font-size:20px"
         d="m 141.2982,397.33215 q 0,1.98243 -0.86914,3.59375 -0.85937,1.61133 -2.29492,2.5 -0.99609,0.61524 -2.22656,0.88868 -1.22071,0.27343 -3.22266,0.27343 l -3.67187,0 0,-14.54101 3.63281,0 q 2.12891,0 3.37891,0.3125 1.25976,0.30273 2.1289,0.83984 1.48438,0.92774 2.31445,2.4707 0.83008,1.54297 0.83008,3.66211 z m -2.02148,-0.0293 q 0,-1.70899 -0.5957,-2.88086 -0.59571,-1.17188 -1.77735,-1.84571 -0.85937,-0.48828 -1.82617,-0.67382 -0.9668,-0.19532 -2.31445,-0.19532 l -1.81641,0 0,11.22071 1.81641,0 q 1.39648,0 2.43164,-0.20508 1.04492,-0.20508 1.91406,-0.76172 1.08398,-0.69336 1.62109,-1.82617 0.54688,-1.13281 0.54688,-2.83203 z M 119.5,381.86133 l 0,0.5 0,30.5 31,0 0,-31 -31,0 z m 1,1 29,0 0,29 -29,0 0,-29 z"
         inkscape:connector-curvature="0" />
    </g>
    <path
       id="path4148-5-0"
       style="fill:none;fill-rule:evenodd;stroke:#000000;stroke-width:1px;stroke-linecap:butt;stroke-linejoin:miter;stroke-opacity:1"
       d="m 430.55235,532.60312 20,0 z m 10,-10 0,20 z m 15,10.00001 a 15,15 0 0 1 -15,15 15,15 0 0 1 -15,-15 15,15 0 0 1 15,-15 15,15 0 0 1 15,15 z"
       inkscape:connector-curvature="0" />
    <path
       id="path4148-4-0-3"
       style="fill:none;fill-rule:evenodd;stroke:#000000;stroke-width:1px;stroke-linecap:butt;stroke-linejoin:miter;stroke-opacity:1"
       d="m 333.22586,525.85033 14.15234,14.1319 z m 14.14212,-0.0102 -14.1319,14.15234 z m 7.93405,7.07616 a 15,15 0 0 1 -15,15 15,15 0 0 1 -15,-15 15,15 0 0 1 15,-15 15,15 0 0 1 15,15 z"
       inkscape:connector-curvature="0" />
    <g
       transform="translate(258.33249,135.94305)"
       style="font-style:normal;font-weight:normal;font-size:10px;line-height:125%;font-family:sans-serif;letter-spacing:0px;word-spacing:0px;fill:#000000;fill-opacity:1;stroke:none;stroke-width:1px;stroke-linecap:butt;stroke-linejoin:miter;stroke-opacity:1"
       id="text4140-2">
      <path
         id="path6659-4"
         style="font-size:20px"
         d="m 141.2982,397.33215 q 0,1.98243 -0.86914,3.59375 -0.85937,1.61133 -2.29492,2.5 -0.99609,0.61524 -2.22656,0.88868 -1.22071,0.27343 -3.22266,0.27343 l -3.67187,0 0,-14.54101 3.63281,0 q 2.12891,0 3.37891,0.3125 1.25976,0.30273 2.1289,0.83984 1.48438,0.92774 2.31445,2.4707 0.83008,1.54297 0.83008,3.66211 z m -2.02148,-0.0293 q 0,-1.70899 -0.5957,-2.88086 -0.59571,-1.17188 -1.77735,-1.84571 -0.85937,-0.48828 -1.82617,-0.67382 -0.9668,-0.19532 -2.31445,-0.19532 l -1.81641,0 0,11.22071 1.81641,0 q 1.39648,0 2.43164,-0.20508 1.04492,-0.20508 1.91406,-0.76172 1.08398,-0.69336 1.62109,-1.82617 0.54688,-1.13281 0.54688,-2.83203 z M 119.5,381.86133 l 0,0.5 0,30.5 31,0 0,-31 -31,0 z m 1,1 29,0 0,29 -29,0 0,-29 z"
         inkscape:connector-curvature="0" />
    </g>
    <g
       transform="translate(305.3528,184.02427)"
       style="font-style:normal;font-weight:normal;font-size:10px;line-height:125%;font-family:sans-serif;letter-spacing:0px;word-spacing:0px;fill:#000000;fill-opacity:1;stroke:none;stroke-width:1px;stroke-linecap:butt;stroke-linejoin:miter;stroke-opacity:1"
       id="text4140-2-4">
      <path
         id="path6659-4-6"
         style="font-size:20px"
         d="m 141.2982,397.33215 q 0,1.98243 -0.86914,3.59375 -0.85937,1.61133 -2.29492,2.5 -0.99609,0.61524 -2.22656,0.88868 -1.22071,0.27343 -3.22266,0.27343 l -3.67187,0 0,-14.54101 3.63281,0 q 2.12891,0 3.37891,0.3125 1.25976,0.30273 2.1289,0.83984 1.48438,0.92774 2.31445,2.4707 0.83008,1.54297 0.83008,3.66211 z m -2.02148,-0.0293 q 0,-1.70899 -0.5957,-2.88086 -0.59571,-1.17188 -1.77735,-1.84571 -0.85937,-0.48828 -1.82617,-0.67382 -0.9668,-0.19532 -2.31445,-0.19532 l -1.81641,0 0,11.22071 1.81641,0 q 1.39648,0 2.43164,-0.20508 1.04492,-0.20508 1.91406,-0.76172 1.08398,-0.69336 1.62109,-1.82617 0.54688,-1.13281 0.54688,-2.83203 z M 119.5,381.86133 l 0,0.5 0,30.5 31,0 0,-31 -31,0 z m 1,1 29,0 0,29 -29,0 0,-29 z"
         inkscape:connector-curvature="0" />
    </g>
    <path
       id="path4148-5-0-9"
       style="fill:none;fill-rule:evenodd;stroke:#000000;stroke-width:1px;stroke-linecap:butt;stroke-linejoin:miter;stroke-opacity:1"
       d="m 430.60183,622.90514 20,0 z m 10,-10 0,20 z m 15,10.00001 a 15,15 0 0 1 -15,15 15,15 0 0 1 -15,-15 15,15 0 0 1 15,-15 15,15 0 0 1 15,15 z"
       inkscape:connector-curvature="0" />
    <path
       id="path4148-4-0-3-3"
       style="fill:none;fill-rule:evenodd;stroke:#000000;stroke-width:1px;stroke-linecap:butt;stroke-linejoin:miter;stroke-opacity:1"
       d="m 332.47813,615.31552 14.15234,14.1319 z m 14.14212,-0.0102 -14.1319,14.15234 z m 7.93405,7.07616 a 15,15 0 0 1 -15,15 15,15 0 0 1 -15,-15 15,15 0 0 1 15,-15 15,15 0 0 1 15,15 z"
       inkscape:connector-curvature="0" />
    <g
       transform="translate(256.10913,225.61743)"
       style="font-style:normal;font-weight:normal;font-size:10px;line-height:125%;font-family:sans-serif;letter-spacing:0px;word-spacing:0px;fill:#000000;fill-opacity:1;stroke:none;stroke-width:1px;stroke-linecap:butt;stroke-linejoin:miter;stroke-opacity:1"
       id="text4140-2-6">
      <path
         id="path6659-4-8"
         style="font-size:20px"
         d="m 141.2982,397.33215 q 0,1.98243 -0.86914,3.59375 -0.85937,1.61133 -2.29492,2.5 -0.99609,0.61524 -2.22656,0.88868 -1.22071,0.27343 -3.22266,0.27343 l -3.67187,0 0,-14.54101 3.63281,0 q 2.12891,0 3.37891,0.3125 1.25976,0.30273 2.1289,0.83984 1.48438,0.92774 2.31445,2.4707 0.83008,1.54297 0.83008,3.66211 z m -2.02148,-0.0293 q 0,-1.70899 -0.5957,-2.88086 -0.59571,-1.17188 -1.77735,-1.84571 -0.85937,-0.48828 -1.82617,-0.67382 -0.9668,-0.19532 -2.31445,-0.19532 l -1.81641,0 0,11.22071 1.81641,0 q 1.39648,0 2.43164,-0.20508 1.04492,-0.20508 1.91406,-0.76172 1.08398,-0.69336 1.62109,-1.82617 0.54688,-1.13281 0.54688,-2.83203 z M 119.5,381.86133 l 0,0.5 0,30.5 31,0 0,-31 -31,0 z m 1,1 29,0 0,29 -29,0 0,-29 z"
         inkscape:connector-curvature="0" />
    </g>
    <g
       transform="translate(305.40228,276.3466)"
       style="font-style:normal;font-weight:normal;font-size:10px;line-height:125%;font-family:sans-serif;letter-spacing:0px;word-spacing:0px;fill:#000000;fill-opacity:1;stroke:none;stroke-width:1px;stroke-linecap:butt;stroke-linejoin:miter;stroke-opacity:1"
       id="text4140-2-4-7">
      <path
         id="path6659-4-6-4"
         style="font-size:20px"
         d="m 141.2982,397.33215 q 0,1.98243 -0.86914,3.59375 -0.85937,1.61133 -2.29492,2.5 -0.99609,0.61524 -2.22656,0.88868 -1.22071,0.27343 -3.22266,0.27343 l -3.67187,0 0,-14.54101 3.63281,0 q 2.12891,0 3.37891,0.3125 1.25976,0.30273 2.1289,0.83984 1.48438,0.92774 2.31445,2.4707 0.83008,1.54297 0.83008,3.66211 z m -2.02148,-0.0293 q 0,-1.70899 -0.5957,-2.88086 -0.59571,-1.17188 -1.77735,-1.84571 -0.85937,-0.48828 -1.82617,-0.67382 -0.9668,-0.19532 -2.31445,-0.19532 l -1.81641,0 0,11.22071 1.81641,0 q 1.39648,0 2.43164,-0.20508 1.04492,-0.20508 1.91406,-0.76172 1.08398,-0.69336 1.62109,-1.82617 0.54688,-1.13281 0.54688,-2.83203 z M 119.5,381.86133 l 0,0.5 0,30.5 31,0 0,-31 -31,0 z m 1,1 29,0 0,29 -29,0 0,-29 z"
         inkscape:connector-curvature="0" />
    </g>
    <path
       id="path4148-5-0-8"
       style="fill:none;fill-rule:evenodd;stroke:#000000;stroke-width:1px;stroke-linecap:butt;stroke-linejoin:miter;stroke-opacity:1"
       d="m 429.64372,718.41022 20,0 z m 10,-10 0,20 z m 15,10.00001 a 15,15 0 0 1 -15,15 15,15 0 0 1 -15,-15 15,15 0 0 1 15,-15 15,15 0 0 1 15,15 z"
       inkscape:connector-curvature="0" />
    <path
       id="path4148-4-0-3-6"
       style="fill:none;fill-rule:evenodd;stroke:#000000;stroke-width:1px;stroke-linecap:butt;stroke-linejoin:miter;stroke-opacity:1"
       d="m 332.44351,710.52101 14.15234,14.1319 z m 14.14212,-0.0102 -14.1319,14.15234 z m 7.93405,7.07616 a 15,15 0 0 1 -15,15 15,15 0 0 1 -15,-15 15,15 0 0 1 15,-15 15,15 0 0 1 15,15 z"
       inkscape:connector-curvature="0" />
    <g
       transform="translate(255.90863,320.48746)"
       style="font-style:normal;font-weight:normal;font-size:10px;line-height:125%;font-family:sans-serif;letter-spacing:0px;word-spacing:0px;fill:#000000;fill-opacity:1;stroke:none;stroke-width:1px;stroke-linecap:butt;stroke-linejoin:miter;stroke-opacity:1"
       id="text4140-2-5">
      <path
         id="path6659-4-0"
         style="font-size:20px"
         d="m 141.2982,397.33215 q 0,1.98243 -0.86914,3.59375 -0.85937,1.61133 -2.29492,2.5 -0.99609,0.61524 -2.22656,0.88868 -1.22071,0.27343 -3.22266,0.27343 l -3.67187,0 0,-14.54101 3.63281,0 q 2.12891,0 3.37891,0.3125 1.25976,0.30273 2.1289,0.83984 1.48438,0.92774 2.31445,2.4707 0.83008,1.54297 0.83008,3.66211 z m -2.02148,-0.0293 q 0,-1.70899 -0.5957,-2.88086 -0.59571,-1.17188 -1.77735,-1.84571 -0.85937,-0.48828 -1.82617,-0.67382 -0.9668,-0.19532 -2.31445,-0.19532 l -1.81641,0 0,11.22071 1.81641,0 q 1.39648,0 2.43164,-0.20508 1.04492,-0.20508 1.91406,-0.76172 1.08398,-0.69336 1.62109,-1.82617 0.54688,-1.13281 0.54688,-2.83203 z M 119.5,381.86133 l 0,0.5 0,30.5 31,0 0,-31 -31,0 z m 1,1 29,0 0,29 -29,0 0,-29 z"
         inkscape:connector-curvature="0" />
    </g>
    <path
       style="fill:none;fill-rule:evenodd;stroke:#000000;stroke-width:1px;stroke-linecap:butt;stroke-linejoin:miter;stroke-opacity:1;marker-end:url(#marker4685)"
       d="m 439.64718,457.03147 0.14473,14.25767"
       id="path4331"
       inkscape:connector-type="polyline"
       inkscape:connector-curvature="0"
       inkscape:connection-start="#path4148-4-0"
       inkscape:connection-end="#text4140-0" />
    <path
       style="fill:none;fill-rule:evenodd;stroke:#000000;stroke-width:1px;stroke-linecap:butt;stroke-linejoin:miter;stroke-opacity:1;marker-end:url(#marker4657)"
       d="m 408.83249,533.07419 16.7217,-0.24833"
       id="path4333"
       inkscape:connector-type="polyline"
       inkscape:connector-curvature="0"
       inkscape:connection-start="#text4140-2"
       inkscape:connection-end="#path4148-5-0" />
    <path
       style="fill:none;fill-rule:evenodd;stroke:#000000;stroke-width:1px;stroke-linecap:butt;stroke-linejoin:miter;stroke-opacity:1;marker-end:url(#marker4653)"
       d="m 355.30136,533.02606 22.53113,0.16489"
       id="path4335"
       inkscape:connector-type="polyline"
       inkscape:connector-curvature="0"
       inkscape:connection-start="#path4148-4-0-3"
       inkscape:connection-end="#text4140-2" />
    <path
       style="fill:none;fill-rule:evenodd;stroke:#000000;stroke-width:1px;stroke-linecap:butt;stroke-linejoin:miter;stroke-opacity:1;marker-end:url(#marker4681)"
       d="m 440.15329,502.28914 0.20162,15.31537"
       id="path4337"
       inkscape:connector-type="polyline"
       inkscape:connector-curvature="0"
       inkscape:connection-start="#text4140-0"
       inkscape:connection-end="#path4148-5-0" />
    <path
       style="fill:none;fill-rule:evenodd;stroke:#000000;stroke-width:1px;stroke-linecap:butt;stroke-linejoin:miter;stroke-opacity:1;marker-end:url(#marker4677)"
       d="m 440.49099,547.60275 -0.0748,18.28285"
       id="path4339"
       inkscape:connector-type="polyline"
       inkscape:connector-curvature="0"
       inkscape:connection-start="#path4148-5-0"
       inkscape:connection-end="#text4140-2-4" />
    <path
       style="fill:none;fill-rule:evenodd;stroke:#000000;stroke-width:1px;stroke-linecap:butt;stroke-linejoin:miter;stroke-opacity:1;marker-end:url(#marker4637)"
       d="m 406.60913,622.95571 18.99284,-0.0282"
       id="path4341"
       inkscape:connector-type="polyline"
       inkscape:connector-curvature="0"
       inkscape:connection-start="#text4140-2-6"
       inkscape:connection-end="#path4148-5-0-9" />
    <path
       style="fill:none;fill-rule:evenodd;stroke:#000000;stroke-width:1px;stroke-linecap:butt;stroke-linejoin:miter;stroke-opacity:1;marker-end:url(#marker4641)"
       d="m 354.55323,622.55525 21.0559,0.24394"
       id="path4345"
       inkscape:connector-type="polyline"
       inkscape:connector-curvature="0"
       inkscape:connection-start="#path4148-4-0-3-3"
       inkscape:connection-end="#text4140-2-6" />
    <path
       style="fill:none;fill-rule:evenodd;stroke:#000000;stroke-width:1px;stroke-linecap:butt;stroke-linejoin:miter;stroke-opacity:1;marker-end:url(#marker4669)"
       d="m 440.54291,637.90479 -0.0797,20.30314"
       id="path4347"
       inkscape:connector-type="polyline"
       inkscape:connector-curvature="0"
       inkscape:connection-start="#path4148-5-0-9"
       inkscape:connection-end="#text4140-2-4-7" />
    <path
       style="fill:none;fill-rule:evenodd;stroke:#000000;stroke-width:1px;stroke-linecap:butt;stroke-linejoin:miter;stroke-opacity:1;marker-end:url(#marker4665)"
       d="m 440.13926,689.20793 -0.24104,14.20473"
       id="path4349"
       inkscape:connector-type="polyline"
       inkscape:connector-curvature="0"
       inkscape:connection-start="#text4140-2-4-7"
       inkscape:connection-end="#path4148-5-0-8" />
    <path
       style="fill:none;fill-rule:evenodd;stroke:#000000;stroke-width:1px;stroke-linecap:butt;stroke-linejoin:miter;stroke-opacity:1;marker-end:url(#marker4633)"
       d="m 406.40863,718.02735 18.23615,0.21009"
       id="path4351"
       inkscape:connector-type="polyline"
       inkscape:connector-curvature="0"
       inkscape:connection-start="#text4140-2-5"
       inkscape:connection-end="#path4148-5-0-8" />
    <path
       style="fill:none;fill-rule:evenodd;stroke:#000000;stroke-width:1px;stroke-linecap:butt;stroke-linejoin:miter;stroke-opacity:1;marker-end:url(#Arrow1Mend)"
       d="m 354.51921,717.66339 20.88942,0.10643"
       id="path4353"
       inkscape:connector-type="polyline"
       inkscape:connector-curvature="0"
       inkscape:connection-start="#path4148-4-0-3-6"
       inkscape:connection-end="#text4140-2-5" />
    <path
       style="fill:none;fill-rule:evenodd;stroke:#000000;stroke-width:1px;stroke-linecap:butt;stroke-linejoin:miter;stroke-opacity:1;marker-end:url(#marker4673)"
       d="m 440.44577,596.8856 0.0661,11.0201"
       id="path4355"
       inkscape:connector-type="polyline"
       inkscape:connector-curvature="0"
       inkscape:connection-start="#text4140-2-4"
       inkscape:connection-end="#path4148-5-0-9" />
    <path
       style="fill:none;fill-rule:evenodd;stroke:#000000;stroke-width:1px;stroke-linecap:butt;stroke-linejoin:miter;stroke-opacity:1;marker-end:url(#marker4689)"
       d="m 439.99999,392.36221 -0.35255,34.67113"
       id="path4357"
       inkscape:connector-type="polyline"
       inkscape:connector-curvature="0"
       inkscape:connection-end="#path4148-4-0" />
    <path
       style="fill:none;fill-rule:evenodd;stroke:#000000;stroke-width:1px;stroke-linecap:butt;stroke-linejoin:miter;stroke-opacity:1;marker-end:url(#marker4649)"
       d="m 299.99999,532.36221 25.30358,0.34788"
       id="path4359"
       inkscape:connector-type="polyline"
       inkscape:connector-curvature="0"
       inkscape:connection-end="#path4148-4-0-3" />
    <path
       style="fill:none;fill-rule:evenodd;stroke:#000000;stroke-width:1px;stroke-linecap:butt;stroke-linejoin:miter;stroke-opacity:1;marker-end:url(#marker4645)"
       d="m 299.99999,622.36221 24.55435,0.012"
       id="path4361"
       inkscape:connector-type="polyline"
       inkscape:connector-curvature="0"
       inkscape:connection-end="#path4148-4-0-3-3" />
    <path
       style="fill:none;fill-rule:evenodd;stroke:#000000;stroke-width:1px;stroke-linecap:butt;stroke-linejoin:miter;stroke-opacity:1;marker-end:url(#marker4661)"
       d="m 439.80111,733.40926 0.19888,18.95295"
       id="path4365"
       inkscape:connector-type="polyline"
       inkscape:connector-curvature="0"
       inkscape:connection-start="#path4148-5-0-8" />
    <path
       style="fill:none;fill-rule:evenodd;stroke:#000000;stroke-width:1px;stroke-linecap:butt;stroke-linejoin:miter;stroke-opacity:1;marker-end:url(#marker4693)"
       d="m 299.99999,717.36221 24.52021,0.13945"
       id="path4369"
       inkscape:connector-type="polyline"
       inkscape:connector-curvature="0"
       inkscape:connection-end="#path4148-4-0-3-6" />
    <path
       style="fill:none;fill-rule:evenodd;stroke:#000000;stroke-width:1px;stroke-linecap:butt;stroke-linejoin:miter;stroke-opacity:1;marker-end:url(#marker4719)"
       d="m 399.99999,442.36221 24.49571,-0.20455"
       id="path4697"
       inkscape:connector-type="polyline"
       inkscape:connector-curvature="0"
       inkscape:connection-end="#path4148-4-0" />
    <path
       style="fill:none;fill-rule:evenodd;stroke:#000000;stroke-width:1px;stroke-linecap:butt;stroke-linejoin:miter;stroke-opacity:1;marker-end:url(#marker4727)"
       d="m 339.99999,502.36221 0.15377,15.55499"
       id="path4699"
       inkscape:connector-type="polyline"
       inkscape:connector-curvature="0"
       inkscape:connection-end="#path4148-4-0-3" />
    <path
       style="fill:none;fill-rule:evenodd;stroke:#000000;stroke-width:1px;stroke-linecap:butt;stroke-linejoin:miter;stroke-opacity:1;marker-end:url(#marker4723)"
       d="m 339.99999,592.36221 -0.22302,15.02111"
       id="path4701"
       inkscape:connector-type="polyline"
       inkscape:connector-curvature="0"
       inkscape:connection-end="#path4148-4-0-3-3" />
    <path
       style="fill:none;fill-rule:evenodd;stroke:#000000;stroke-width:1px;stroke-linecap:butt;stroke-linejoin:miter;stroke-opacity:1;marker-end:url(#marker4731)"
       d="m 339.99999,687.36221 -0.24198,15.22689"
       id="path4703"
       inkscape:connector-type="polyline"
       inkscape:connector-curvature="0"
       inkscape:connection-end="#path4148-4-0-3-6" />
    <text
       xml:space="preserve"
       style="font-style:normal;font-weight:normal;font-size:12.5px;line-height:125%;font-family:sans-serif;letter-spacing:0px;word-spacing:0px;fill:#000000;fill-opacity:1;stroke:none;stroke-width:1px;stroke-linecap:butt;stroke-linejoin:miter;stroke-opacity:1"
       x="394.90283"
       y="437.71936"
       id="text4735"
       sodipodi:linespacing="125%"><tspan
         sodipodi:role="line"
         id="tspan4737"
         x="394.90283"
         y="437.71936">$h$</tspan></text>
    <text
       xml:space="preserve"
       style="font-style:normal;font-weight:normal;font-size:12.5px;line-height:125%;font-family:sans-serif;letter-spacing:0px;word-spacing:0px;fill:#000000;fill-opacity:1;stroke:none;stroke-width:1px;stroke-linecap:butt;stroke-linejoin:miter;stroke-opacity:1"
       x="336.02502"
       y="497.92859"
       id="text4735-0"
       sodipodi:linespacing="125%"><tspan
         sodipodi:role="line"
         id="tspan4737-1"
         x="336.02502"
         y="497.92859">$h$</tspan></text>
    <text
       xml:space="preserve"
       style="font-style:normal;font-weight:normal;font-size:12.5px;line-height:125%;font-family:sans-serif;letter-spacing:0px;word-spacing:0px;fill:#000000;fill-opacity:1;stroke:none;stroke-width:1px;stroke-linecap:butt;stroke-linejoin:miter;stroke-opacity:1"
       x="336.23425"
       y="588.43365"
       id="text4735-0-3"
       sodipodi:linespacing="125%"><tspan
         sodipodi:role="line"
         id="tspan4737-1-7"
         x="336.23425"
         y="588.43365">$h$</tspan></text>
    <text
       xml:space="preserve"
       style="font-style:normal;font-weight:normal;font-size:12.5px;line-height:125%;font-family:sans-serif;letter-spacing:0px;word-spacing:0px;fill:#000000;fill-opacity:1;stroke:none;stroke-width:1px;stroke-linecap:butt;stroke-linejoin:miter;stroke-opacity:1"
       x="336.11169"
       y="683.91333"
       id="text4735-0-6"
       sodipodi:linespacing="125%"><tspan
         sodipodi:role="line"
         id="tspan4737-1-4"
         x="336.11169"
         y="683.91333">$h$</tspan></text>
    <text
       xml:space="preserve"
       style="font-style:normal;font-weight:normal;font-size:12.5px;line-height:125%;font-family:sans-serif;letter-spacing:0px;word-spacing:0px;fill:#000000;fill-opacity:1;stroke:none;stroke-width:1px;stroke-linecap:butt;stroke-linejoin:miter;stroke-opacity:1"
       x="432.9079"
       y="390.42859"
       id="text4783"
       sodipodi:linespacing="125%"><tspan
         sodipodi:role="line"
         id="tspan4785"
         x="432.9079"
         y="390.42859">$x_n$</tspan></text>
    <text
       xml:space="preserve"
       style="font-style:normal;font-weight:normal;font-size:12.5px;line-height:125%;font-family:sans-serif;letter-spacing:0px;word-spacing:0px;fill:#000000;fill-opacity:1;stroke:none;stroke-width:1px;stroke-linecap:butt;stroke-linejoin:miter;stroke-opacity:1"
       x="289.42441"
       y="528.66083"
       id="text4783-0"
       sodipodi:linespacing="125%"><tspan
         sodipodi:role="line"
         id="tspan4785-4"
         x="289.42441"
         y="528.66083">$x_{n+1}$</tspan></text>
    <text
       xml:space="preserve"
       style="font-style:normal;font-weight:normal;font-size:12.5px;line-height:125%;font-family:sans-serif;letter-spacing:0px;word-spacing:0px;fill:#000000;fill-opacity:1;stroke:none;stroke-width:1px;stroke-linecap:butt;stroke-linejoin:miter;stroke-opacity:1"
       x="286.2937"
       y="618.15576"
       id="text4783-0-5"
       sodipodi:linespacing="125%"><tspan
         sodipodi:role="line"
         id="tspan4785-4-7"
         x="286.2937"
         y="618.15576">$x_{n+2}$</tspan></text>
    <text
       xml:space="preserve"
       style="font-style:normal;font-weight:normal;font-size:12.5px;line-height:125%;font-family:sans-serif;letter-spacing:0px;word-spacing:0px;fill:#000000;fill-opacity:1;stroke:none;stroke-width:1px;stroke-linecap:butt;stroke-linejoin:miter;stroke-opacity:1"
       x="286.24295"
       y="713.20648"
       id="text4783-0-8"
       sodipodi:linespacing="125%"><tspan
         sodipodi:role="line"
         id="tspan4785-4-8"
         x="286.24295"
         y="713.20648">$x_{n+3}$</tspan></text>
    <text
       xml:space="preserve"
       style="font-style:normal;font-weight:normal;font-size:12.5px;line-height:125%;font-family:sans-serif;letter-spacing:0px;word-spacing:0px;fill:#000000;fill-opacity:1;stroke:none;stroke-width:1px;stroke-linecap:butt;stroke-linejoin:miter;stroke-opacity:1"
       x="434.99997"
       y="762.36218"
       id="text4831"
       sodipodi:linespacing="125%"><tspan
         sodipodi:role="line"
         id="tspan4833"
         x="434.99997"
         y="762.36218">$y_n$</tspan></text>
  </g>
</svg>
